<svg xmlns="http://www.w3.org/2000/svg" width="32" height="32" viewBox="0 0 448 512" fill="#E1306C">
  <path d="M224.1 141c-63.6 0-114.9 51.3-114.9 114.9S160.5 370.8 224.1 370.8 339 319.5 339 255.9 287.7 141 224.1 141zm0 189.6c-41.2 0-74.7-33.5-74.7-74.7s33.5-74.7 74.7-74.7 74.7 33.5 74.7 74.7-33.5 74.7-74.7 74.7zm146.4-194.3c0 14.9-12 26.9-26.9 26.9s-26.9-12-26.9-26.9 12-26.9 26.9-26.9 26.9 12 26.9 26.9zm76.1 27.2c-1.7-35.7-9.9-67.3-36.2-93.5s-57.8-34.5-93.5-36.2c-36.9-2.1-147.3-2.1-184.2 0-35.7 1.7-67.3 9.9-93.5 36.2s-34.5 57.8-36.2 93.5c-2.1 36.9-2.1 147.3 0 184.2 1.7 35.7 9.9 67.3 36.2 93.5s57.8 34.5 93.5 36.2c36.9 2.1 147.3 2.1 184.2 0 35.7-1.7 67.3-9.9 93.5-36.2s34.5-57.8 36.2-93.5c2.1-36.9 2.1-147.3 0-184.2zM398.8 388c-7.8 19.5-22.9 34.6-42.4 42.4-29.4 11.7-99.2 9-132.3 9s-102.9 2.6-132.3-9c-19.5-7.8-34.6-22.9-42.4-42.4-11.7-29.4-9-99.2-9-132.3s-2.6-102.9 9-132.3c7.8-19.5 22.9-34.6 42.4-42.4 29.4-11.7 99.2-9 132.3-9s102.9-2.6 132.3 9c19.5 7.8 34.6 22.9 42.4 42.4 11.7 29.4 9 99.2 9 132.3s2.7 102.9-9 132.3z"/>
</svg>
